<?xml version="1.0" encoding="UTF-8"?>
<svg width="739px" height="232px" viewBox="0 0 739 232" version="1.1" xmlns="http://www.w3.org/2000/svg" xmlns:xlink="http://www.w3.org/1999/xlink">
    <title>Fontech</title>
    <g id="Symbols" stroke="none" stroke-width="1" fill="none" fill-rule="evenodd">
        <g id="Page-1">
            <path d="M593.3569,53.1357 C593.3569,47.6717 589.6269,45.6617 585.0559,48.6697 L538.5079,79.3777 C533.9499,82.3857 534.2389,86.7987 539.1649,89.1757 L584.3599,110.9797 C589.2729,113.3567 593.3179,110.8217 593.3179,105.3577 L593.3569,53.1357 Z" id="Fill-1" fill="#FFDF24"></path>
            <path d="M76.4026,77.1446 C82.6936,77.1446 87.6856,81.9126 87.6856,88.2036 C87.6856,94.2856 82.6936,99.0666 76.4026,99.0666 L22.9986,99.0666 L22.9986,139.4276 L73.5656,139.4276 C79.8706,139.4276 84.8616,144.1956 84.8616,150.4996 C84.8616,156.5686 79.8706,161.3496 73.5656,161.3496 L22.9986,161.3496 L22.9986,220.1646 C22.9986,226.4556 17.7966,231.4476 11.7296,231.4476 C5.4246,231.4476 -0.0004,226.4556 -0.0004,220.1646 L-0.0004,91.0286 C-0.0004,83.6466 6.3046,77.1446 14.1066,77.1446 L76.4026,77.1446 Z M335.5306,74.9647 C341.6116,74.9647 346.6026,79.9557 346.6026,86.2607 L346.6026,119.2407 L367.6566,119.2407 C373.9486,119.2407 378.9386,123.7977 378.9386,129.8787 C378.9386,136.3807 374.1586,140.7287 367.6566,140.7287 L346.6026,140.7287 L346.6026,197.3767 C346.6026,205.6247 350.9366,210.8257 356.5836,210.8257 C362.8756,210.8257 363.9656,209.0927 368.0906,209.0927 C373.5146,209.0927 378.9386,212.9927 378.9386,219.5077 C378.9386,224.9327 374.8146,229.0567 369.3906,230.1477 C365.0426,231.0137 360.9186,231.4477 356.5836,231.4477 C338.7876,231.4477 324.2476,217.5507 324.2476,197.5867 L324.2476,86.2607 C324.2476,79.9557 329.2386,74.9647 335.5306,74.9647 Z M146.0671,117.073 C159.3071,117.073 170.7991,121.408 179.0471,129.656 C187.2961,137.904 191.6431,149.41 191.6431,162.649 L191.6431,185.871 C191.6431,199.11 187.2961,210.603 179.0471,218.864 C170.7991,227.1 159.3071,231.447 146.0671,231.447 C132.8281,231.447 121.3221,227.1 113.0741,218.864 C104.8381,210.603 100.4911,199.11 100.4911,185.871 L100.4911,162.649 C100.4911,149.41 104.8381,137.904 113.0741,129.656 C121.3221,121.408 132.8281,117.073 146.0671,117.073 Z M254.1491,117.0733 C266.9421,117.0733 277.8051,121.1973 285.6061,129.2223 C293.4211,137.0383 297.7681,147.8863 297.7681,160.4823 L297.7681,220.1653 C297.7681,226.4563 292.7771,231.4473 286.4861,231.4473 C280.1821,231.4473 275.4141,226.4563 275.4141,220.1653 L275.4141,158.7353 C275.4141,145.4963 267.5991,137.6943 254.1491,137.6943 C246.9781,137.6943 239.8201,138.7713 233.0951,140.5173 L233.0951,220.1653 C233.0951,226.4563 228.1041,231.4473 222.0231,231.4473 C215.7311,231.4473 210.7401,226.4563 210.7401,220.1653 L210.7401,135.9483 C210.7401,129.8793 214.4321,124.6653 220.2891,122.7213 C230.9281,119.0303 242.4211,117.0733 254.1491,117.0733 Z M437.9777,117.0728 C450.7707,117.0728 461.6197,121.1968 469.4347,129.2228 C477.2497,137.0378 481.5967,147.8868 481.5967,160.4828 L481.5967,170.6748 C481.5967,178.4888 475.2927,184.7808 467.4907,184.7808 L416.9237,184.7808 C416.9237,193.6868 418.4337,199.5438 421.2577,203.4448 C424.9487,208.2258 430.5967,210.8258 437.9777,210.8258 C446.2137,210.8258 454.0287,208.4368 461.4097,205.1918 C462.9327,204.5348 464.4437,204.1018 465.9677,204.1018 C471.3917,204.1018 476.6057,208.6588 476.6057,214.2938 C476.6057,218.4178 474.8727,222.1098 470.9577,224.0668 C460.5427,229.0568 449.4707,231.4468 437.9777,231.4468 C425.3827,231.4468 414.5337,227.3228 406.5087,219.2978 C398.6927,211.4838 394.5697,200.6208 394.5697,187.8278 L394.5697,160.4828 C394.5697,147.8868 398.6927,137.0378 406.5087,129.2228 C414.5337,121.1968 425.3827,117.0728 437.9777,117.0728 Z M544.537,117.0734 C555.162,117.0734 565.368,119.4634 574.707,124.0214 C578.817,125.9654 580.985,129.8784 580.985,134.0034 C580.985,139.4274 576.44,144.1954 570.359,144.1954 C568.402,144.1954 566.668,143.5514 565.158,142.8954 C558.854,140.0714 551.695,137.6944 544.537,137.6944 C531.297,137.6944 523.482,145.4964 523.482,158.7354 L523.482,189.5614 C523.482,203.0114 531.297,210.6024 544.537,210.6024 C551.695,210.6024 559.51,208.2254 565.802,205.1914 C567.325,204.3114 568.835,204.1014 570.569,204.1014 C575.994,204.1014 580.985,208.4364 580.985,214.5174 C580.985,218.6404 578.607,222.5424 574.483,224.4994 C565.158,229.0564 555.162,231.4474 544.537,231.4474 C531.941,231.4474 521.092,227.3234 513.067,219.2974 C505.252,211.4834 501.128,200.6214 501.128,187.8284 L501.128,160.4824 C501.128,147.8864 505.252,137.0384 513.067,129.2224 C521.092,121.1974 531.941,117.0734 544.537,117.0734 Z M667.7239,80.9416 C672.2809,77.9326 680.0569,77.4086 684.9689,79.7846 C684.9689,79.7846 698.345306,86.2353912 712.065329,92.8540124 L713.98067,93.777998 L713.98067,93.777998 L714.937554,94.2396223 L714.937554,94.2396223 L715.892603,94.7003688 L715.892603,94.7003688 L716.844832,95.1597634 C717.478494,95.4654704 718.10962,95.76996 718.7369,96.0726 C728.2859,100.6816 738.3859,108.9436 738.35995,124.6256 C738.33287,141.00674 738.319245,151.431257 738.312596,158.029911 L738.311672,158.968504 C738.311234,159.424392 738.310831,159.860353 738.310462,160.277222 L738.309767,161.08575 C738.309659,161.216345 738.309553,161.34488 738.309452,161.471386 L738.308624,162.556005 C738.308542,162.670618 738.308463,162.783295 738.308387,162.894067 L738.307612,164.133872 C738.307558,164.229899 738.307507,164.324145 738.307459,164.416641 L738.307574,168.932114 C738.307593,168.944244 738.307611,168.955612 738.307628,168.966251 L738.3079,169.0986 C738.3079,174.5626 734.6819,181.6546 730.2559,184.8466 L730.2559,184.8466 L688.7519,214.7276 C684.3129,217.9186 680.6219,216.0666 680.5819,210.5896 L680.5819,210.5896 L680.581663,210.567061 C680.581611,210.562027 680.581552,210.55614 680.581485,210.549392 L680.580688,210.465189 C680.580361,210.429219 680.579978,210.385267 680.579548,210.3331 L680.578631,210.217743 C680.574904,209.733021 680.5689,208.756255 680.565583,207.181956 L680.564782,206.757646 C680.56466,206.684645 680.564543,206.610498 680.564433,206.535195 L680.563624,205.826033 C680.563556,205.743718 680.563495,205.660222 680.563442,205.575536 L680.563431,203.920764 C680.563488,203.821483 680.563555,203.720959 680.563633,203.619185 L680.564234,202.993458 C680.570252,197.759627 680.60414,189.48068 680.7139,177.1366 C680.8579,160.4956 668.1839,151.4326 664.0589,149.4506 C659.4764,147.236 653.24132,144.22463 646.757633,141.093866 L645.457997,140.466322 C630.700649,133.340664 615.1469,125.8336 615.1469,125.8336 C610.2209,123.4696 609.9329,119.0566 614.4899,116.0486 L614.4899,116.0486 Z M146.0671,137.694 C131.3041,137.694 122.8461,146.152 122.8461,160.916 L122.8461,187.828 C122.8461,202.368 131.3041,210.826 146.0671,210.826 C160.8171,210.826 169.2891,202.368 169.2891,187.828 L169.2891,160.916 C169.2891,147.243 160.3831,137.694 146.0671,137.694 Z M605.2827,144.3145 C605.2827,138.8505 609.3027,136.3155 614.2277,138.6925 L614.2277,138.6925 L646.9847,154.4935 C651.8967,156.8705 652.1987,161.2835 647.6417,164.2905 L647.6417,164.2905 L613.5317,186.7775 C608.9737,189.7855 605.2307,187.7755 605.243666,182.3115 L605.243666,182.3115 Z M437.9777,137.6938 C424.2917,137.6938 416.9237,145.9298 416.9237,164.1728 L459.2427,164.1728 C459.2427,146.1518 451.8607,137.6938 437.9777,137.6938 Z M663.508329,6.8632 L663.4683,59.4662 C663.4683,64.9292 659.7383,71.8652 655.1673,74.8732 L613.5713,102.3102 C609.0133,105.3312 605.2823,103.3222 605.2823,97.8452 L605.3223,45.2422 C605.3223,39.7782 609.0653,32.8432 613.6233,29.8222 L655.2193,2.3972 C659.7783,-0.6108 663.5203,1.3992 663.508329,6.8632 Z" id="Combined-Shape" fill="#3C3C3C"></path>
        </g>
    </g>
</svg>
